<?xml version="1.0" encoding="UTF-8" standalone="no"?>
<!DOCTYPE svg PUBLIC "-//W3C//DTD SVG 1.1//EN" "http://www.w3.org/Graphics/SVG/1.1/DTD/svg11.dtd">
<svg version="1.1" xmlns="http://www.w3.org/2000/svg" xmlns:xlink="http://www.w3.org/1999/xlink" preserveAspectRatio="xMidYMid meet" viewBox="0 0 640 640" width="640" height="640"><defs><path d="M510.2 455.39C510.2 461.4 505.34 466.26 499.33 466.26C443.59 466.26 285.97 466.26 229.92 466.26C224.78 466.26 220.62 462.1 220.62 456.96C220.62 415.5 220.62 298.42 220.62 256.46C220.62 252.36 223.16 248.69 227 247.26C283.64 226.07 446.34 165.22 502.77 144.12C506.37 142.77 510.2 145.43 510.2 149.27C510.2 212.67 510.2 392.58 510.2 455.39Z" id="aDnJA0Q1D"></path></defs><g><g><g><g><filter id="shadow4434569" x="211.62" y="134.76" width="308.58" height="341.5" filterUnits="userSpaceOnUse" primitiveUnits="userSpaceOnUse"><feFlood></feFlood><feComposite in2="SourceAlpha" operator="in"></feComposite><feGaussianBlur stdDeviation="1"></feGaussianBlur><feOffset dx="1" dy="1" result="afterOffset"></feOffset><feFlood flood-color="#000000" flood-opacity="0.5"></feFlood><feComposite in2="afterOffset" operator="in"></feComposite><feMorphology operator="dilate" radius="1"></feMorphology><feComposite in2="SourceAlpha" operator="out"></feComposite></filter><path d="M510.2 455.39C510.2 461.4 505.34 466.26 499.33 466.26C443.59 466.26 285.97 466.26 229.92 466.26C224.78 466.26 220.62 462.1 220.62 456.96C220.62 415.5 220.62 298.42 220.62 256.46C220.62 252.36 223.16 248.69 227 247.26C283.64 226.07 446.34 165.22 502.77 144.12C506.37 142.77 510.2 145.43 510.2 149.27C510.2 212.67 510.2 392.58 510.2 455.39Z" id="c4vCXjVoXf" fill="white" fill-opacity="1" filter="url(#shadow4434569)"></path></g><use xlink:href="#aDnJA0Q1D" opacity="1" fill="#000000" fill-opacity="1"></use><g><use xlink:href="#aDnJA0Q1D" opacity="1" fill-opacity="0" stroke="#000000" stroke-width="1" stroke-opacity="1"></use></g></g></g></g></svg>